<svg width="64" height="64" viewBox="0 0 64 64" fill="none" xmlns="http://www.w3.org/2000/svg">
<path d="M2 32C2 48.5685 15.4315 62 32 62C48.5685 62 62 48.5685 62 32C62 15.4315 48.5685 2 32 2C15.4315 2 2 15.4315 2 32Z" fill="#FAECE9"/>
<path d="M2 32C2 48.5685 15.4315 62 32 62C48.5685 62 62 48.5685 62 32C62 15.4315 48.5685 2 32 2C15.4315 2 2 15.4315 2 32Z" stroke="white" stroke-width="4"/>
<path d="M45.6381 36.9825C46.6608 38.0113 47.6757 39.0321 48.7189 40.0801C48.5905 40.2214 48.4786 40.3674 48.3454 40.487C43.9558 44.428 37.6925 44.253 33.5417 40.4974C31.6065 38.7464 30.4183 36.5612 29.9944 33.9684C29.8202 32.9043 29.78 31.8177 29.6595 30.7432C29.4594 28.9649 28.5548 27.5975 27.1988 26.5222C24.6813 24.5256 21.0607 24.6283 18.6701 26.7781C17.4252 27.8984 16.7153 29.3284 16.4726 31.0072C16.0164 34.1626 17.7908 37.0122 20.4422 38.1863C22.301 39.0088 24.1928 38.9735 26.035 38.0418C26.2816 37.9174 26.5243 37.785 26.7693 37.6574C26.7796 37.6518 26.7953 37.6574 26.8623 37.6574C27.6479 38.8331 28.45 40.0336 29.3152 41.3288C28.8881 41.5719 28.4965 41.8199 28.0844 42.0261C26.0783 43.0301 23.9564 43.4233 21.74 43.1344C19.4423 42.835 17.3984 41.9042 15.6768 40.3193C13.9039 38.687 12.7315 36.6704 12.2548 34.2782C11.6032 31.0056 12.1941 27.9602 14.1513 25.2727C16.5774 21.9368 19.9104 20.3238 23.9517 20.6664C28.4516 21.0484 31.6112 23.5048 33.4227 27.7459C33.9813 29.0532 34.0562 30.4351 34.198 31.8129C34.3241 33.0319 34.3706 34.2629 35.0277 35.3615C36.1387 37.2185 37.687 38.4671 39.8105 38.8114C41.7315 39.1236 43.513 38.683 45.0636 37.4303C45.248 37.2811 45.434 37.1334 45.6199 36.9865C45.6294 36.9793 45.6451 36.9809 45.6381 36.9825Z" fill="#BC4040"/>
<path d="M34.0156 23.1566C37.3005 20.356 42.6963 19.5382 47.2261 22.7064C51.5597 25.7366 52.5659 31.0306 51.7331 34.2197H39.1348V29.867H47.23C46.4366 26.6033 41.657 23.0892 36.6969 26.5752C35.8105 25.4453 34.9218 24.3122 34.0156 23.1566Z" fill="#606060"/>
</svg>
