<svg width="64" height="64" viewBox="0 0 64 64" fill="none" xmlns="http://www.w3.org/2000/svg">
<path d="M2 32C2 48.5685 15.4315 62 32 62C48.5685 62 62 48.5685 62 32C62 15.4315 48.5685 2 32 2C15.4315 2 2 15.4315 2 32Z" fill="#DAEFF3"/>
<path d="M2 32C2 48.5685 15.4315 62 32 62C48.5685 62 62 48.5685 62 32C62 15.4315 48.5685 2 32 2C15.4315 2 2 15.4315 2 32Z" stroke="white" stroke-width="4"/>
<path d="M51.8347 33.1234C50.6503 37.3257 43.4312 39.6748 38.196 36.9041C30.8055 32.9922 24.2414 33.0807 18.1463 39.0872C22.5787 31.6849 26.6629 24.0482 31.5777 16.971C34.4138 12.8869 41.1203 13.9223 43.6499 18.2872C46.4824 23.1741 49.1149 28.1729 51.8347 33.1234Z" fill="url(#paint0_linear_4364_4135)"/>
<path d="M12.0751 48.8689C14.0986 45.6071 16.1225 42.3452 18.1461 39.0838C24.2408 33.0778 30.8048 32.9889 38.1958 36.9007C43.4309 39.6719 50.65 37.3223 51.8344 33.12C53.1748 38.1775 46.1283 47.5805 39.6651 49.3657C39.1316 49.5149 38.5794 49.5906 38.0248 49.5906C34.7682 49.5906 31.5501 48.9148 28.5736 47.6195C28.2658 47.4856 27.956 47.3561 27.6438 47.233C22.2511 45.1035 17.2576 45.6646 12.8097 49.4747C12.3914 49.8331 11.7861 49.3343 12.0751 48.8689Z" fill="url(#paint1_linear_4364_4135)"/>
<defs>
<linearGradient id="paint0_linear_4364_4135" x1="29.5827" y1="16.2135" x2="35.8432" y2="39.9199" gradientUnits="userSpaceOnUse">
<stop stop-color="#94A3B8"/>
<stop offset="1" stop-color="#070C19"/>
</linearGradient>
<linearGradient id="paint1_linear_4364_4135" x1="15.3026" y1="36.914" x2="49.1148" y2="46.1064" gradientUnits="userSpaceOnUse">
<stop offset="0.11" stop-color="#88C7D8"/>
<stop offset="0.93" stop-color="#30738E"/>
</linearGradient>
</defs>
</svg>
