<svg width="64" height="64" viewBox="0 0 64 64" fill="none" xmlns="http://www.w3.org/2000/svg">
<path d="M1.99908 32C1.99908 48.5685 15.4305 62 31.9991 62C48.5676 62 61.9991 48.5685 61.9991 32C61.9991 15.4315 48.5676 2 31.9991 2C15.4305 2 1.99908 15.4315 1.99908 32Z" fill="#CDFEE9"/>
<path d="M1.99908 32C1.99908 48.5685 15.4305 62 31.9991 62C48.5676 62 61.9991 48.5685 61.9991 32C61.9991 15.4315 48.5676 2 31.9991 2C15.4305 2 1.99908 15.4315 1.99908 32Z" stroke="white" stroke-width="4"/>
<g clip-path="url(#clip0_4364_4126)">
<path fill-rule="evenodd" clip-rule="evenodd" d="M23.9994 12.0002C17.372 12.0002 11.9994 17.3728 11.9994 24.0002V40.0002C11.9994 46.6276 17.372 52.0002 23.9994 52.0002H39.9994C46.6269 52.0002 51.9994 46.6276 51.9994 40.0002V24.0002C51.9994 17.3728 46.6269 12.0002 39.9994 12.0002H23.9994ZM25.5041 21.2231C25.2412 21.0595 24.9407 20.9504 24.6403 21.0231C24.0957 21.1504 23.8328 21.8413 24.152 22.2959C25.4853 24.4959 26.8186 26.714 28.1331 28.914C29.2223 30.8231 29.2035 33.2413 28.0956 35.1322C27.5689 36.0155 27.0375 36.8942 26.5061 37.773C25.9765 38.6488 25.4469 39.5246 24.9219 40.4049C24.817 40.6013 24.6939 40.7951 24.5701 40.9901C24.3612 41.3189 24.1502 41.6512 24.0206 42.0049C23.8515 42.6958 24.7342 43.2776 25.3351 42.8595C29.0588 40.7652 32.7724 38.6613 36.4906 36.5548C37.8728 35.7718 39.2557 34.9883 40.6399 34.2049C41.2596 33.8595 41.7479 33.2958 41.9169 32.6231C42.1234 31.8777 41.9357 31.0413 41.4286 30.4413C41.1521 30.0844 40.75 29.8613 40.3559 29.6426C40.2681 29.5939 40.1808 29.5455 40.0953 29.4958C37.6681 28.1166 35.2408 26.742 32.8136 25.3674C30.3771 23.9875 27.9406 22.6076 25.5041 21.2231Z" fill="url(#paint0_linear_4364_4126)"/>
<path d="M24.6403 21.0231C24.9407 20.9504 25.2412 21.0595 25.5041 21.2231C30.3678 23.9868 35.2316 26.7322 40.0953 29.4958C40.5648 29.7686 41.0906 30.0049 41.4286 30.4413C41.9357 31.0413 42.1234 31.8777 41.9169 32.6231C41.7479 33.2958 41.2596 33.8595 40.6399 34.2049C35.532 37.0958 30.443 39.9867 25.3351 42.8595C24.7342 43.2776 23.8515 42.6958 24.0206 42.0049C24.2271 41.4413 24.6403 40.9322 24.9219 40.4049C25.9736 38.6413 27.044 36.8958 28.0956 35.1322C29.2035 33.2413 29.2223 30.8231 28.1331 28.914C26.8186 26.714 25.4853 24.4959 24.152 22.2959C23.8328 21.8413 24.0957 21.1504 24.6403 21.0231Z" fill="white"/>
</g>
<defs>
<linearGradient id="paint0_linear_4364_4126" x1="11.999" y1="12.0002" x2="40.9926" y2="58.8165" gradientUnits="userSpaceOnUse">
<stop stop-color="#03CC9A"/>
<stop offset="0.333333" stop-color="#04CE9B"/>
<stop offset="1" stop-color="#018B6A"/>
</linearGradient>
<clipPath id="clip0_4364_4126">
<rect width="40" height="40" fill="white" transform="translate(11.9991 12)"/>
</clipPath>
</defs>
</svg>
