<svg width="64" height="64" viewBox="0 0 64 64" fill="none" xmlns="http://www.w3.org/2000/svg">
<path d="M2 32C2 48.5685 15.4315 62 32 62C48.5685 62 62 48.5685 62 32C62 15.4315 48.5685 2 32 2C15.4315 2 2 15.4315 2 32Z" fill="#DFFAFC"/>
<path d="M2 32C2 48.5685 15.4315 62 32 62C48.5685 62 62 48.5685 62 32C62 15.4315 48.5685 2 32 2C15.4315 2 2 15.4315 2 32Z" stroke="white" stroke-width="4"/>
<g clip-path="url(#clip0_4364_4128)">
<path d="M35.4412 27.8804C37.7909 25.5306 40.1067 23.2147 42.4494 20.872C41.2641 19.4048 40.9297 17.7015 41.4278 15.8451C41.7761 14.5474 42.5863 13.5666 43.7003 12.8512C45.7504 11.536 48.7671 11.8294 50.4996 13.7466C52.4284 15.8813 52.3294 18.9185 50.6019 20.9281C48.8712 22.94 45.6077 23.5315 43.0959 21.5277C40.7696 23.8541 38.4478 26.1759 36.0853 28.5397C36.1354 28.611 36.2348 28.7584 36.3413 28.8997C37.6986 30.7141 37.6213 33.5431 36.1904 35.292C35.2973 36.3827 34.1878 37.0911 32.7886 37.2876C31.2933 37.4981 29.9162 37.1731 28.7062 36.2485C28.5052 36.094 28.3836 36.0847 28.2012 36.2682C26.0211 38.4579 23.8371 40.6427 21.6476 42.8219C21.4779 42.9914 21.4676 43.1025 21.6124 43.3012C22.9382 45.1167 23.1136 47.0866 22.1128 49.0599C21.1823 50.894 19.6006 51.8516 17.5057 51.9159C16.0408 51.9603 14.7712 51.4856 13.7074 50.5082C12.9323 49.7975 12.4261 48.902 12.1689 47.8698C11.4991 45.1694 12.9768 42.477 15.4539 41.5745C17.2964 40.9035 19.0721 41.1361 20.6633 42.346C20.8514 42.4899 20.9612 42.4816 21.1204 42.3226C23.3216 40.1145 25.5264 37.9096 27.7347 35.7082C27.8821 35.561 27.8773 35.4569 27.7488 35.2967C26.2771 33.4696 26.2337 30.7984 27.5874 28.8834C29.3317 26.4155 32.6213 26.0531 34.8122 27.4385C35.0366 27.5811 35.2483 27.7446 35.4412 27.8804Z" fill="#026468"/>
<path d="M35.3426 42.5426C37.703 40.1834 40.0586 37.8278 42.4411 35.4454C41.2651 33.9981 40.9307 32.3019 41.4206 30.4571C41.748 29.2273 42.488 28.2675 43.5354 27.5508C45.6649 26.093 48.7067 26.3783 50.4811 28.3189C52.3412 30.3506 52.3916 33.3421 50.6977 35.4126C49.0055 37.4841 45.5524 38.1844 43.0677 36.0941C40.704 38.4604 38.3425 40.824 35.9776 43.1903C38.0736 45.803 37.1476 49.0273 35.4397 50.4875C33.2666 52.3461 30.324 52.1871 28.3811 50.3858C26.4604 48.6053 26.1891 45.5553 27.7941 43.4124C29.0989 41.6705 32.3535 40.2115 35.3415 42.5403L35.3426 42.5426Z" fill="#026468"/>
<path d="M27.93 20.9153C27.5909 20.2115 27.1935 19.5978 26.9889 18.9244C26.056 15.8534 27.9734 12.787 31.0419 12.2621C34.0267 11.7512 36.6908 13.672 37.1269 16.6694C37.3502 18.2032 36.9679 19.6246 35.9193 20.8054C34.4112 22.5018 32.5174 22.9506 30.3768 22.3603C29.8215 22.2071 29.3165 21.8494 28.8093 21.5489C28.5975 21.4239 28.4819 21.4099 28.3005 21.591C26.0888 23.8145 23.87 26.0323 21.6477 28.2451C21.4793 28.4124 21.4593 28.5223 21.6173 28.7211C22.3128 29.6036 22.654 30.609 22.7057 31.7395C22.7688 33.1389 22.37 34.3698 21.4863 35.4336C20.5019 36.6179 19.2184 37.2468 17.6764 37.3346C16.3097 37.4128 15.0764 37.04 14.0208 36.1738C12.757 35.1379 12.0754 33.7958 12.0182 32.1474C11.9656 30.6418 12.4706 29.3381 13.5005 28.2663C14.4626 27.2644 15.6597 26.7126 17.0685 26.6553C17.9113 26.6214 18.7367 26.7021 19.5035 27.0656C19.915 27.2609 20.2984 27.5181 20.682 27.7683C20.8527 27.8794 20.9638 27.9039 21.1239 27.7438C23.3637 25.4945 25.6107 23.251 27.8552 21.0054C27.902 20.9585 27.9394 20.9048 27.9313 20.9141L27.93 20.9153Z" fill="#026468"/>
<path d="M31.9653 22.7704C34.9237 22.7704 37.322 20.3723 37.322 17.4139C37.322 14.4555 34.9237 12.0573 31.9653 12.0573C29.0071 12.0573 26.6088 14.4555 26.6088 17.4139C26.6088 20.3723 29.0071 22.7704 31.9653 22.7704Z" fill="#026468"/>
<path d="M31.9653 51.9344C34.9237 51.9344 37.322 49.5363 37.322 46.5778C37.322 43.6195 34.9237 41.2213 31.9653 41.2213C29.0071 41.2213 26.6088 43.6195 26.6088 46.5778C26.6088 49.5363 29.0071 51.9344 31.9653 51.9344Z" fill="#026468"/>
<path d="M41.2291 46.5745C41.124 43.7991 43.4702 41.2027 46.62 41.2226C49.5477 41.2414 52.024 43.7617 51.9181 46.7896C51.8225 49.5064 49.4923 52.0456 46.3228 51.9321C43.628 51.8351 41.1205 49.4925 41.2291 46.5745Z" fill="#68DDE3"/>
<path d="M17.3478 12.0797C20.0972 11.8658 22.8749 14.4389 22.7171 17.6654C22.5897 20.2642 20.3954 22.8045 17.2764 22.7601C14.4439 22.7192 11.9187 20.3577 12.0122 17.1861C12.0916 14.4658 14.4215 11.9546 17.3478 12.0797Z" fill="#68DDE3"/>
<path d="M17.3675 37.3706C20.3388 37.3706 22.7474 34.962 22.7474 31.9906C22.7474 29.0194 20.3388 26.6107 17.3675 26.6107C14.3961 26.6107 11.9875 29.0194 11.9875 31.9906C11.9875 34.962 14.3961 37.3706 17.3675 37.3706Z" fill="#68DDE3"/>
<path d="M31.9654 37.3881C34.9509 37.3881 37.3711 34.9679 37.3711 31.9824C37.3711 28.9969 34.9509 26.5768 31.9654 26.5768C28.9801 26.5768 26.5597 28.9969 26.5597 31.9824C26.5597 34.9679 28.9801 37.3881 31.9654 37.3881Z" fill="#68DDE3"/>
<path d="M17.3675 52C20.362 52 22.7895 49.5725 22.7895 46.578C22.7895 43.5836 20.362 41.1561 17.3675 41.1561C14.3731 41.1561 11.9455 43.5836 11.9455 46.578C11.9455 49.5725 14.3731 52 17.3675 52Z" fill="#68DDE3"/>
<path d="M46.573 22.8276C49.5645 22.8276 51.987 20.4038 51.987 17.4138C51.987 14.4239 49.5645 12 46.573 12C43.5838 12 41.16 14.4239 41.16 17.4138C41.16 20.4038 43.5838 22.8276 46.573 22.8276Z" fill="#68DDE3"/>
<path d="M46.5814 37.4642C49.6049 37.4642 52.0559 35.0135 52.0559 31.9906C52.0559 28.9679 49.6049 26.5172 46.5814 26.5172C43.559 26.5172 41.1085 28.9679 41.1085 31.9906C41.1085 35.0135 43.559 37.4642 46.5814 37.4642Z" fill="#68DDE3"/>
</g>
<defs>
<clipPath id="clip0_4364_4128">
<rect width="40" height="40" fill="white" transform="translate(12 12)"/>
</clipPath>
</defs>
</svg>
