<svg width="64" height="64" viewBox="0 0 64 64" fill="none" xmlns="http://www.w3.org/2000/svg">
<path d="M1.99908 32C1.99908 48.5685 15.4305 62 31.9991 62C48.5676 62 61.9991 48.5685 61.9991 32C61.9991 15.4315 48.5676 2 31.9991 2C15.4305 2 1.99908 15.4315 1.99908 32Z" fill="#F9EEDB"/>
<path d="M1.99908 32C1.99908 48.5685 15.4305 62 31.9991 62C48.5676 62 61.9991 48.5685 61.9991 32C61.9991 15.4315 48.5676 2 31.9991 2C15.4305 2 1.99908 15.4315 1.99908 32Z" stroke="white" stroke-width="4"/>
<path d="M35.7539 17C36.1758 17.0821 36.5964 17.171 37.0197 17.2464C43.437 18.4043 47.6493 22.1797 50.2279 27.8495C51.4369 30.5087 51.982 33.3335 51.8575 36.2296C51.614 41.828 47.2883 46.0962 42.0703 46.8354C41.8517 46.8664 41.6414 46.9606 41.427 47.0252H20.8138C20.6464 46.962 20.4845 46.8677 20.3102 46.8421C16.1713 46.2322 12.7613 43.0439 12.0392 39.1002C11.277 34.9384 13.2054 30.7281 16.9902 28.8808C18.3694 28.2076 19.133 27.2961 19.8413 26.0439C22.5319 21.2857 26.5602 18.2158 32.142 17.2424C32.5183 17.1777 32.8904 17.0821 33.2639 17C34.0939 17 34.9239 17 35.7539 17ZM31.099 43.4357C34.1423 43.4357 37.1871 43.4774 40.229 43.4236C43.2323 43.371 45.6103 42.1377 47.1568 39.5795C48.1127 38.0002 48.3147 36.2821 48.1556 34.4577C47.8665 31.1442 46.7723 28.1551 44.6433 25.5565C42.174 22.5419 38.966 20.77 34.9834 20.6205C31.3729 20.4845 28.2742 21.8148 25.697 24.2613C23.8309 26.0332 22.543 28.1672 21.7558 30.5827C21.6355 30.953 21.5068 31.1819 21.0282 31.2277C17.9835 31.5225 15.5626 34.1494 15.5031 37.1721C15.4367 40.5988 18.2726 43.3953 21.8983 43.4289C24.9638 43.4572 28.0307 43.4343 31.0976 43.4357H31.099Z" fill="#DC9750"/>
</svg>
