<svg width="64" height="64" viewBox="0 0 64 64" fill="none" xmlns="http://www.w3.org/2000/svg">
<path d="M2 32.0002C2 48.5687 15.4314 62.0003 32 62.0003C48.5686 62.0003 62 48.5687 62 32.0002C62 15.4316 48.5686 2 32 2C15.4314 2 2 15.4316 2 32.0002Z" fill="#D2F2FF"/>
<path d="M2 32.0002C2 48.5687 15.4314 62.0003 32 62.0003C48.5686 62.0003 62 48.5687 62 32.0002C62 15.4316 48.5686 2 32 2C15.4314 2 2 15.4316 2 32.0002Z" stroke="white" stroke-width="4"/>
<path fill-rule="evenodd" clip-rule="evenodd" d="M51.9998 32.0002C51.9998 43.0459 43.0455 52.0002 31.9998 52.0002C20.9541 52.0002 11.9998 43.0459 11.9998 32.0002C11.9998 20.9545 20.9541 12.0002 31.9998 12.0002C43.0455 12.0002 51.9998 20.9545 51.9998 32.0002ZM38.0194 38.0634C39.6334 36.4713 40.5276 34.3121 40.5276 32.022C40.5494 27.3328 36.7544 23.4942 32.0652 23.4724H31.9998C29.7315 23.4724 27.5941 24.3666 25.9801 26.0024C24.3662 27.6381 23.472 29.7973 23.472 32.0874V40.528H31.9998C34.2898 40.528 36.4272 39.6556 38.0194 38.0634Z" fill="#034694"/>
</svg>
