<svg width="64" height="64" viewBox="0 0 64 64" fill="none" xmlns="http://www.w3.org/2000/svg">
<path d="M2 32.0002C2 48.5684 15.4312 62.0004 31.9995 62.0004C48.5679 62.0004 61.9991 48.5684 61.9991 32.0002C61.9991 15.432 48.5679 2 31.9995 2C15.4312 2 2 15.432 2 32.0002Z" fill="#E2E6F7"/>
<path d="M2 32.0002C2 48.5684 15.4312 62.0004 31.9995 62.0004C48.5679 62.0004 61.9991 48.5684 61.9991 32.0002C61.9991 15.432 48.5679 2 31.9995 2C15.4312 2 2 15.432 2 32.0002Z" stroke="white" stroke-width="4"/>
<g clip-path="url(#clip0_4364_4127)">
<path d="M43.3498 12V20.6509H22.5751C22.3223 20.6507 22.072 20.7004 21.8385 20.797C21.605 20.8936 21.3928 21.0354 21.2141 21.2141C21.0354 21.3928 20.8936 21.605 20.797 21.8385C20.7004 22.072 20.6507 22.3223 20.6509 22.575V43.3497H12V29.051C11.9994 28.546 12.0987 28.0458 12.2922 27.5793C12.4857 27.1128 12.7696 26.6892 13.1275 26.3328L26.3197 13.1406C26.6765 12.7788 27.1018 12.4916 27.5707 12.2958C28.0397 12.0999 28.5429 11.9994 29.0511 12H43.3498Z" fill="#434EC3"/>
<path d="M20.6506 52.0004V43.3495H41.4254C41.6779 43.3495 41.9279 43.2998 42.1612 43.2031C42.3945 43.1065 42.6065 42.9649 42.785 42.7863C42.9636 42.6078 43.1052 42.3958 43.2018 42.1625C43.2985 41.9292 43.3482 41.6792 43.3482 41.4266V20.6506H51.9991V34.9441C51.9998 35.4493 51.9006 35.9498 51.7071 36.4165C51.5136 36.8833 51.2297 37.3071 50.8716 37.6636L37.6807 50.8559C37.3236 51.219 36.8976 51.5073 36.4277 51.7038C35.9578 51.9003 35.4534 52.0012 34.9441 52.0004H20.6506Z" fill="#434EC3"/>
</g>
<defs>
<clipPath id="clip0_4364_4127">
<rect width="39.9991" height="40.0004" fill="white" transform="translate(12 12)"/>
</clipPath>
</defs>
</svg>
