<svg width="64" height="66" viewBox="0 0 64 66" fill="none" xmlns="http://www.w3.org/2000/svg">
<path d="M62 34V32C62 15.4315 48.5685 2 32 2C15.4315 2 2 15.4315 2 32V34C2 50.5685 15.4315 64 32 64C48.5685 64 62 50.5685 62 34Z" fill="#FFFAC5"/>
<path d="M62 34V32C62 15.4315 48.5685 2 32 2C15.4315 2 2 15.4315 2 32V34C2 50.5685 15.4315 64 32 64C48.5685 64 62 50.5685 62 34Z" stroke="white" stroke-width="4"/>
<path fill-rule="evenodd" clip-rule="evenodd" d="M14.1049 25.1196L14.0014 40.6412C13.9965 41.4315 14.1995 42.2091 14.5901 42.8961C14.9807 43.5831 15.5451 44.1553 16.2267 44.5552L29.6157 52.4074C30.298 52.8073 31.0736 53.0205 31.8645 53.0256C32.6554 53.0307 33.4337 52.8276 34.1212 52.4366L47.6187 44.768C48.3049 44.377 48.8763 43.8126 49.2757 43.1312C49.675 42.4498 49.8882 41.6754 49.894 40.8857L49.9999 25.3666C50.0046 24.5761 49.8012 23.7983 49.4102 23.1113C49.0191 22.4242 48.4542 21.8522 47.7722 21.4526L34.3782 13.5954C33.6958 13.1945 32.9199 12.9805 32.1285 12.9748C31.3371 12.969 30.5582 13.1719 29.8701 13.5629L16.3877 21.239C15.7003 21.6288 15.1275 22.1926 14.7268 22.8737C14.3262 23.5548 14.1117 24.3294 14.1049 25.1196ZM44.8565 39.7159L39.9505 36.8441L39.9402 36.8381L39.945 36.8299L45.9524 26.5856L46.0667 26.3737V26.3646L46.0681 26.3612C46.338 25.7823 46.3834 25.1237 46.1953 24.5132C46.0072 23.9027 45.5991 23.3838 45.0501 23.0572L45.0493 23.0538L34.4421 16.8144C33.7322 16.3979 32.9252 16.1757 32.1022 16.1701C31.2792 16.1645 30.4692 16.3758 29.7538 16.7828L19.7857 22.4781C19.4525 22.6684 19.1753 22.943 18.9817 23.2743C18.7882 23.6056 18.6852 23.982 18.6831 24.3657C18.681 24.7494 18.7798 25.1268 18.9697 25.4603C19.1596 25.7937 19.4338 26.0713 19.7648 26.2653L24.0393 28.7742L24.0441 28.7769L24.0438 28.7774L18.038 39.0159C17.6894 39.6113 17.5912 40.3207 17.7652 40.9884C17.9392 41.656 18.371 42.2274 18.9658 42.5769L29.4521 48.7237C29.5598 48.7861 29.6713 48.8419 29.7858 48.8905C30.4538 49.2377 31.196 49.4179 31.9489 49.4156C32.7017 49.4132 33.4428 49.2285 34.1087 48.8772L34.1512 48.8563L34.1452 48.8454L34.2192 48.8055L44.8106 42.7889C45.081 42.6346 45.3061 42.412 45.4634 42.1433C45.6207 41.8746 45.7046 41.5693 45.7067 41.258C45.7088 40.9467 45.6291 40.6403 45.4755 40.3695C45.3218 40.0987 45.0998 39.873 44.8315 39.7151L44.8565 39.7159ZM45.0588 26.0216L45.0495 26.0282L32.7821 46.9567L33.1278 46.3682L45.0588 26.0216ZM19.5041 41.662L19.5048 41.6625C19.4565 41.6345 19.4097 41.6039 19.3649 41.5709C19.4095 41.6037 19.456 41.6341 19.5041 41.662ZM29.4946 31.9528L24.9529 29.3143L24.9541 29.3123L28.3167 31.2658L29.4946 31.9528ZM20.2971 25.3525L24.9341 28.0726L25.0333 28.13L30.2339 31.1454C30.5137 31.3073 30.8127 31.4303 31.1226 31.5121C31.4161 31.5894 31.7194 31.6297 32.0254 31.6313C32.0294 31.6313 32.0333 31.6313 32.0373 31.6313C32.0339 31.6313 32.0305 31.6313 32.0271 31.6313C31.3968 31.628 30.7783 31.4603 30.2327 31.1446L25.0322 28.1292L20.2989 25.3525C20.1277 25.2535 19.9856 25.1112 19.8868 24.9399C19.788 24.7687 19.736 24.5744 19.736 24.3767C19.736 24.179 19.788 23.9847 19.8868 23.8134C19.9856 23.6422 20.1277 23.4999 20.2989 23.4009L26.8551 19.6638L20.2971 23.4009C20.126 23.4999 19.9839 23.6422 19.8851 23.8134C19.7863 23.9847 19.7343 24.179 19.7343 24.3767C19.7343 24.5744 19.7863 24.7687 19.8851 24.9399C19.9839 25.1112 20.126 25.2535 20.2971 25.3525ZM45.2002 24.9451C45.2002 24.945 45.2002 24.945 45.2002 24.945C45.2008 24.945 45.2014 24.9451 45.2019 24.9451M45.2002 24.9451C45.1999 24.945 45.1995 24.945 45.1991 24.9449ZM45.2002 24.945C45.1999 24.945 45.1995 24.9449 45.1991 24.9449ZM33.5201 47.8695L33.52 47.8693C33.5177 47.8589 33.5177 47.848 33.52 47.8376C33.518 47.8243 33.518 47.8108 33.52 47.7976L33.5384 47.7709L33.5518 47.7514L33.5518 47.7513L33.5519 47.7513C33.5765 47.7156 33.6006 47.6806 33.6218 47.6432L35.3245 44.7335L33.6219 47.6434C33.6008 47.6806 33.5768 47.7154 33.5524 47.7508L33.5384 47.7711L33.5201 47.7978C33.518 47.8111 33.518 47.8246 33.5201 47.8378C33.5177 47.8483 33.5177 47.8591 33.5201 47.8695ZM39.4152 37.7431L39.4165 37.741L44.3225 40.6287C44.4303 40.6918 44.5198 40.7821 44.5819 40.8905C44.6441 40.9989 44.6768 41.1216 44.6768 41.2466C44.6768 41.3715 44.6441 41.4943 44.5819 41.6027C44.5198 41.7111 44.4303 41.8013 44.3225 41.8644L44.31 41.8669L36.4978 46.3066L44.31 41.8663C44.4198 41.8057 44.5113 41.7166 44.5747 41.6084C44.6382 41.5002 44.6712 41.3768 44.6705 41.2514C44.6728 41.1261 44.6423 41.0024 44.5807 40.8933C44.519 40.7841 44.4293 40.6934 44.3209 40.6306L39.4152 37.7431Z" fill="#3A4BA4"/>
<path d="M44.8565 39.7159L39.9505 36.8441L39.4916 36.5788L39.0352 36.3134L32.694 47.1067L32.6673 47.1493C32.6362 47.1895 32.6083 47.2322 32.5839 47.2769C32.4928 47.4458 32.4436 47.6341 32.4404 47.8259C32.4363 47.8798 32.4363 47.9339 32.4404 47.9878C32.4432 48.016 32.4485 48.044 32.4562 48.0712C32.4643 48.1116 32.4749 48.1515 32.4879 48.1905C32.4998 48.2284 32.514 48.2654 32.5305 48.3015C32.587 48.4301 32.6671 48.547 32.7666 48.6461C32.8093 48.6894 32.8553 48.7293 32.9043 48.7654C33.1003 48.9121 33.3386 48.9912 33.5834 48.9907C33.7569 48.9914 33.9281 48.9522 34.0841 48.8764L34.1266 48.8555L34.2192 48.8055L44.8106 42.7889C45.081 42.6346 45.3061 42.412 45.4634 42.1433C45.6207 41.8746 45.7046 41.5693 45.7067 41.258C45.7088 40.9467 45.6291 40.6403 45.4755 40.3695C45.3218 40.0987 45.0998 39.873 44.8315 39.7151L44.8565 39.7159ZM44.31 41.8669L33.7186 47.886L33.6527 47.9202C33.6371 47.9241 33.6208 47.9241 33.6051 47.9202H33.5784C33.5634 47.9154 33.5497 47.9071 33.5384 47.896C33.531 47.888 33.5249 47.879 33.52 47.8693C33.5177 47.8589 33.5177 47.848 33.52 47.8376C33.518 47.8243 33.518 47.8108 33.52 47.7976L33.5384 47.7709C33.5676 47.7283 33.5968 47.6874 33.6218 47.6432L39.4165 37.741L44.3225 40.6287C44.4303 40.6918 44.5198 40.7821 44.5819 40.8905C44.6441 40.9989 44.6768 41.1216 44.6768 41.2466C44.6768 41.3715 44.6441 41.4943 44.5819 41.6027C44.5198 41.7111 44.4303 41.8013 44.3225 41.8644L44.31 41.8669Z" fill="white"/>
<path d="M45.8222 25.2523L45.7638 25.1964C45.6053 25.0592 45.4096 24.9721 45.2015 24.9461C45.1601 24.9434 45.1186 24.9434 45.0772 24.9461H44.9879C44.9209 24.9521 44.8545 24.9635 44.7893 24.9803C44.7254 24.9982 44.6634 25.0222 44.6041 25.052C44.5579 25.0766 44.5136 25.1045 44.4714 25.1355C44.4542 25.149 44.4354 25.1605 44.4155 25.1697L33.8275 31.1637C33.2787 31.4738 32.6585 31.6353 32.0282 31.632C31.398 31.6288 30.7794 31.4611 30.2339 31.1454L25.0333 28.13L24.5744 27.8647L24.3091 28.3211L24.0438 28.7774L18.038 39.0159C17.6894 39.6113 17.5912 40.3207 17.7652 40.9884C17.9392 41.656 18.371 42.2274 18.9658 42.5769L29.4521 48.7237C29.5598 48.7861 29.6713 48.8419 29.7858 48.8905C30.4538 49.2377 31.196 49.4179 31.9489 49.4156C32.7017 49.4132 33.4428 49.2285 34.1087 48.8772L34.1512 48.8563L33.8917 48.3866L33.6414 47.9202C33.6258 47.9241 33.6095 47.9241 33.5939 47.9202H33.5672C33.5521 47.9154 33.5384 47.9071 33.5271 47.896C33.5195 47.8882 33.5133 47.8792 33.5088 47.8693C33.5064 47.8589 33.5064 47.848 33.5088 47.8376C33.5067 47.8243 33.5067 47.8108 33.5088 47.7975L33.5271 47.7708C33.5563 47.7283 33.5855 47.6874 33.6105 47.6432L39.4144 37.7427L39.6797 37.2863L39.945 36.8299L45.9524 26.5856L46.0667 26.3737V26.3495C46.1055 26.2386 46.1261 26.1223 46.1276 26.0049C46.1287 25.8655 46.1022 25.7273 46.0498 25.5982C45.9974 25.469 45.9201 25.3515 45.8222 25.2523ZM32.6953 47.1059L32.6686 47.1484C32.6374 47.1887 32.6095 47.2314 32.5851 47.2761C32.494 47.4449 32.4448 47.6332 32.4416 47.8251C32.4376 47.8789 32.4376 47.9331 32.4416 47.9869C32.4444 48.0152 32.4497 48.0431 32.4575 48.0704C32.4655 48.1108 32.4761 48.1506 32.4892 48.1897C32.501 48.2275 32.5152 48.2646 32.5317 48.3007C31.7893 48.4249 31.0266 48.3126 30.3515 47.9794L30.2214 47.9135C30.141 47.8808 30.0629 47.8426 29.9878 47.7992L19.5048 41.6625C19.3284 41.5603 19.174 41.424 19.0506 41.2617C18.9272 41.0993 18.8373 40.9141 18.786 40.7168C18.7347 40.5194 18.723 40.3138 18.7518 40.112C18.7805 39.9101 18.849 39.7159 18.9533 39.5407L24.9541 29.3123L29.7007 32.0698C30.4071 32.4777 31.2076 32.6944 32.0233 32.6986C32.839 32.7029 33.6417 32.4945 34.3523 32.094L44.9412 26.0925L44.9754 26.0716C45.0046 26.0573 45.0325 26.0406 45.0588 26.0216L32.6953 47.1059Z" fill="white"/>
<path d="M45.0493 23.0538L34.4421 16.8144C33.7322 16.3979 32.9252 16.1757 32.1022 16.1701C31.2792 16.1645 30.4692 16.3758 29.7538 16.7828L19.7857 22.4781C19.4525 22.6684 19.1753 22.943 18.9817 23.2743C18.7882 23.6056 18.6852 23.982 18.6831 24.3657C18.681 24.7494 18.7798 25.1268 18.9697 25.4603C19.1596 25.7937 19.4338 26.0713 19.7648 26.2653L24.0393 28.7742L24.4982 29.0395L24.9546 29.3048L29.7012 32.0733C30.4076 32.4811 31.2081 32.6978 32.0238 32.702C32.8395 32.7063 33.6422 32.4979 34.3528 32.0974L44.9417 26.0967L44.9759 26.0759C45.0114 26.0528 45.0435 26.0247 45.071 25.9924L45.5566 26.2102L46.0389 26.4246C46.0497 26.404 46.0594 26.3828 46.0681 26.3612C46.338 25.7823 46.3834 25.1237 46.1953 24.5132C46.0072 23.9027 45.5991 23.3838 45.0501 23.0572L45.0493 23.0538ZM45.081 24.9311H44.9909C44.9236 24.9343 44.8569 24.9458 44.7923 24.9653C44.7284 24.9833 44.6664 25.0073 44.6071 25.0371C44.5609 25.0617 44.5166 25.0896 44.4744 25.1205C44.4572 25.134 44.4384 25.1455 44.4185 25.1547L33.8246 31.163C33.2759 31.4731 32.6557 31.6345 32.0254 31.6313C31.3951 31.6281 30.7766 31.4603 30.2311 31.1446L25.0305 28.1292L20.2971 25.3525C20.126 25.2535 19.9839 25.1112 19.8851 24.9399C19.7863 24.7687 19.7343 24.5744 19.7343 24.3767C19.7343 24.179 19.7863 23.9847 19.8851 23.8134C19.9839 23.6422 20.126 23.4999 20.2971 23.4009L30.287 17.708C30.8405 17.3942 31.4669 17.2314 32.1032 17.2361C32.7395 17.2408 33.3634 17.4127 33.9123 17.7347L44.4135 23.9132L44.497 23.9691C44.6746 24.0754 44.8287 24.2168 44.95 24.3846C45.0712 24.5525 45.1569 24.7432 45.202 24.9453C45.1608 24.9398 45.1192 24.937 45.0777 24.937L45.081 24.9311Z" fill="white"/>
<path d="M44.6705 41.2514C44.6712 41.3768 44.6382 41.5002 44.5747 41.6084C44.5113 41.7166 44.4198 41.8057 44.31 41.8663L33.7186 47.8862L33.6527 47.9204C33.6371 47.9243 33.6208 47.9243 33.6052 47.9204H33.5785C33.5634 47.9156 33.5497 47.9073 33.5384 47.8962C33.5308 47.8885 33.5246 47.8794 33.5201 47.8695C33.5177 47.8591 33.5177 47.8483 33.5201 47.8378C33.518 47.8246 33.518 47.8111 33.5201 47.7978L33.5384 47.7711C33.5676 47.7285 33.5968 47.6877 33.6219 47.6434L39.4148 37.7429L44.3209 40.6306C44.4293 40.6934 44.519 40.7841 44.5807 40.8933C44.6423 41.0024 44.6728 41.1261 44.6705 41.2514Z" fill="url(#paint0_linear_4364_4132)"/>
<path d="M45.0581 26.0135L32.6945 47.1062L32.6678 47.1487C32.6367 47.189 32.6088 47.2317 32.5844 47.2764C32.4933 47.4453 32.4441 47.6335 32.4409 47.8254C32.4368 47.8793 32.4368 47.9334 32.4409 47.9873C32.4437 48.0155 32.449 48.0434 32.4567 48.0707C32.4648 48.1111 32.4754 48.1509 32.4884 48.19C32.5003 48.2278 32.5145 48.2649 32.531 48.301C31.7886 48.4253 31.0258 48.3129 30.3508 47.9797L30.2206 47.9138C30.1402 47.8812 30.0622 47.843 29.987 47.7995L19.5041 41.662C19.3277 41.5597 19.1733 41.4235 19.0499 41.2612C18.9265 41.0988 18.8365 40.9136 18.7852 40.7163C18.7339 40.5189 18.7223 40.3133 18.751 40.1115C18.7798 39.9096 18.8483 39.7154 18.9526 39.5402L24.95 29.3126L29.6967 32.0702C30.4031 32.478 31.2036 32.6947 32.0192 32.6989C32.8349 32.7032 33.6376 32.4948 34.3482 32.0944L44.9371 26.0936L44.9713 26.0728C45.002 26.0557 45.031 26.0359 45.0581 26.0135Z" fill="url(#paint1_linear_4364_4132)"/>
<path d="M45.2053 24.9453C45.164 24.9426 45.1224 24.9426 45.081 24.9453H44.9909C44.9236 24.9485 44.8569 24.96 44.7923 24.9795C44.7284 24.9974 44.6664 25.0215 44.6071 25.0513C44.561 25.0759 44.5166 25.1038 44.4744 25.1347C44.4572 25.1482 44.4384 25.1597 44.4185 25.1689L33.8263 31.163C33.2776 31.4731 32.6574 31.6345 32.0271 31.6313C31.3968 31.628 30.7783 31.4603 30.2327 31.1446L25.0322 28.1292L20.2989 25.3525C20.1277 25.2535 19.9856 25.1112 19.8868 24.9399C19.788 24.7687 19.736 24.5744 19.736 24.3767C19.736 24.179 19.788 23.9847 19.8868 23.8134C19.9856 23.6422 20.1277 23.4999 20.2989 23.4009L30.2861 17.7081C30.8397 17.3942 31.466 17.2314 32.1024 17.2361C32.7387 17.2408 33.3626 17.4128 33.9114 17.7348L44.4119 23.9132L44.4953 23.9691C44.673 24.0754 44.8271 24.2168 44.9483 24.3846C45.0695 24.5525 45.1553 24.7432 45.2003 24.9453H45.2053Z" fill="url(#paint2_linear_4364_4132)"/>
<defs>
<linearGradient id="paint0_linear_4364_4132" x1="43.5226" y1="38.6795" x2="33.4754" y2="46.8579" gradientUnits="userSpaceOnUse">
<stop stop-color="#F6CC36"/>
<stop offset="1" stop-color="#FE8A3B"/>
</linearGradient>
<linearGradient id="paint1_linear_4364_4132" x1="18.7357" y1="37.1819" x2="45.0581" y2="37.1819" gradientUnits="userSpaceOnUse">
<stop stop-color="#F6CC36"/>
<stop offset="1" stop-color="#FE8A3B"/>
</linearGradient>
<linearGradient id="paint2_linear_4364_4132" x1="38.2013" y1="20.5325" x2="28.7518" y2="40.3622" gradientUnits="userSpaceOnUse">
<stop stop-color="#F6CC36"/>
<stop offset="1" stop-color="#FE8A3B"/>
</linearGradient>
</defs>
</svg>
